TITLE ""
FILE "LR_black_phrase_E_C06.mp3" MP3
  TRACK 01 AUDIO
    TITLE "LR_black_phrase_E_C06_001"
    INDEX 01 00:00:00
  TRACK 02 AUDIO
    TITLE "LR_black_phrase_E_C06_002"
    INDEX 01 00:00:14
  TRACK 03 AUDIO
    TITLE "LR_black_phrase_E_C06_003"
    INDEX 01 00:01:25
  TRACK 04 AUDIO
    TITLE "LR_black_phrase_E_C06_004"
    INDEX 01 00:01:53
  TRACK 05 AUDIO
    TITLE "LR_black_phrase_E_C06_005"
    INDEX 01 00:04:06
  TRACK 06 AUDIO
    TITLE "LR_black_phrase_E_C06_006"
    INDEX 01 00:04:63
  TRACK 07 AUDIO
    TITLE "LR_black_phrase_E_C06_007"
    INDEX 01 00:07:16
  TRACK 08 AUDIO
    TITLE "LR_black_phrase_E_C06_008"
    INDEX 01 00:08:22
  TRACK 09 AUDIO
    TITLE "LR_black_phrase_E_C06_009"
    INDEX 01 00:09:37
  TRACK 10 AUDIO
    TITLE "LR_black_phrase_E_C06_010"
    INDEX 01 00:09:66
  TRACK 11 AUDIO
    TITLE "LR_black_phrase_E_C06_011"
    INDEX 01 00:12:43
  TRACK 12 AUDIO
    TITLE "LR_black_phrase_E_C06_012"
    INDEX 01 00:13:23
  TRACK 13 AUDIO
    TITLE "LR_black_phrase_E_C06_013"
    INDEX 01 00:15:73
  TRACK 14 AUDIO
    TITLE "LR_black_phrase_E_C06_014"
    INDEX 01 00:16:72
  TRACK 15 AUDIO
    TITLE "LR_black_phrase_E_C06_015"
    INDEX 01 00:18:04
  TRACK 16 AUDIO
    TITLE "LR_black_phrase_E_C06_016"
    INDEX 01 00:18:22
  TRACK 17 AUDIO
    TITLE "LR_black_phrase_E_C06_017"
    INDEX 01 00:20:09
  TRACK 18 AUDIO
    TITLE "LR_black_phrase_E_C06_018"
    INDEX 01 00:20:54
  TRACK 19 AUDIO
    TITLE "LR_black_phrase_E_C06_019"
    INDEX 01 00:22:41
  TRACK 20 AUDIO
    TITLE "LR_black_phrase_E_C06_020"
    INDEX 01 00:23:37
  TRACK 21 AUDIO
    TITLE "LR_black_phrase_E_C06_021"
    INDEX 01 00:24:52
  TRACK 22 AUDIO
    TITLE "LR_black_phrase_E_C06_022"
    INDEX 01 00:24:70
  TRACK 23 AUDIO
    TITLE "LR_black_phrase_E_C06_023"
    INDEX 01 00:27:50
  TRACK 24 AUDIO
    TITLE "LR_black_phrase_E_C06_024"
    INDEX 01 00:28:20
  TRACK 25 AUDIO
    TITLE "LR_black_phrase_E_C06_025"
    INDEX 01 00:31:01
  TRACK 26 AUDIO
    TITLE "LR_black_phrase_E_C06_026"
    INDEX 01 00:32:01
  TRACK 27 AUDIO
    TITLE "LR_black_phrase_E_C06_027"
    INDEX 01 00:33:25
  TRACK 28 AUDIO
    TITLE "LR_black_phrase_E_C06_028"
    INDEX 01 00:33:55
  TRACK 29 AUDIO
    TITLE "LR_black_phrase_E_C06_029"
    INDEX 01 00:36:26
  TRACK 30 AUDIO
    TITLE "LR_black_phrase_E_C06_030"
    INDEX 01 00:37:06
  TRACK 31 AUDIO
    TITLE "LR_black_phrase_E_C06_031"
    INDEX 01 00:39:51
  TRACK 32 AUDIO
    TITLE "LR_black_phrase_E_C06_032"
    INDEX 01 00:40:55
  TRACK 33 AUDIO
    TITLE "LR_black_phrase_E_C06_033"
    INDEX 01 00:41:72
  TRACK 34 AUDIO
    TITLE "LR_black_phrase_E_C06_034"
    INDEX 01 00:42:26
  TRACK 35 AUDIO
    TITLE "LR_black_phrase_E_C06_035"
    INDEX 01 00:44:25
  TRACK 36 AUDIO
    TITLE "LR_black_phrase_E_C06_036"
    INDEX 01 00:45:01
  TRACK 37 AUDIO
    TITLE "LR_black_phrase_E_C06_037"
    INDEX 01 00:46:75
  TRACK 38 AUDIO
    TITLE "LR_black_phrase_E_C06_038"
    INDEX 01 00:47:75
  TRACK 39 AUDIO
    TITLE "LR_black_phrase_E_C06_039"
    INDEX 01 00:49:05
  TRACK 40 AUDIO
    TITLE "LR_black_phrase_E_C06_040"
    INDEX 01 00:49:24
  TRACK 41 AUDIO
    TITLE "LR_black_phrase_E_C06_041"
    INDEX 01 00:51:72
  TRACK 42 AUDIO
    TITLE "LR_black_phrase_E_C06_042"
    INDEX 01 00:52:42
  TRACK 43 AUDIO
    TITLE "LR_black_phrase_E_C06_043"
    INDEX 01 00:55:13
  TRACK 44 AUDIO
    TITLE "LR_black_phrase_E_C06_044"
    INDEX 01 00:56:11
  TRACK 45 AUDIO
    TITLE "LR_black_phrase_E_C06_045"
    INDEX 01 00:57:36
  TRACK 46 AUDIO
    TITLE "LR_black_phrase_E_C06_046"
    INDEX 01 00:57:51
  TRACK 47 AUDIO
    TITLE "LR_black_phrase_E_C06_047"
    INDEX 01 00:59:42
  TRACK 48 AUDIO
    TITLE "LR_black_phrase_E_C06_048"
    INDEX 01 01:00:12
  TRACK 49 AUDIO
    TITLE "LR_black_phrase_E_C06_049"
    INDEX 01 01:02:02
  TRACK 50 AUDIO
    TITLE "LR_black_phrase_E_C06_050"
    INDEX 01 01:03:03
  TRACK 51 AUDIO
    TITLE "LR_black_phrase_E_C06_051"
    INDEX 01 01:04:06
  TRACK 52 AUDIO
    TITLE "LR_black_phrase_E_C06_052"
    INDEX 01 01:04:34
  TRACK 53 AUDIO
    TITLE "LR_black_phrase_E_C06_053"
    INDEX 01 01:07:11
  TRACK 54 AUDIO
    TITLE "LR_black_phrase_E_C06_054"
    INDEX 01 01:07:65
  TRACK 55 AUDIO
    TITLE "LR_black_phrase_E_C06_055"
    INDEX 01 01:10:40
  TRACK 56 AUDIO
    TITLE "LR_black_phrase_E_C06_056"
    INDEX 01 01:11:46
  TRACK 57 AUDIO
    TITLE "LR_black_phrase_E_C06_057"
    INDEX 01 01:12:45
  TRACK 58 AUDIO
    TITLE "LR_black_phrase_E_C06_058"
    INDEX 01 01:12:74
  TRACK 59 AUDIO
    TITLE "LR_black_phrase_E_C06_059"
    INDEX 01 01:14:66
  TRACK 60 AUDIO
    TITLE "LR_black_phrase_E_C06_060"
    INDEX 01 01:15:47
  TRACK 61 AUDIO
    TITLE "LR_black_phrase_E_C06_061"
    INDEX 01 01:17:38
  TRACK 62 AUDIO
    TITLE "LR_black_phrase_E_C06_062"
    INDEX 01 01:18:40
  TRACK 63 AUDIO
    TITLE "LR_black_phrase_E_C06_063"
    INDEX 01 01:19:37
  TRACK 64 AUDIO
    TITLE "LR_black_phrase_E_C06_064"
    INDEX 01 01:19:61
  TRACK 65 AUDIO
    TITLE "LR_black_phrase_E_C06_065"
    INDEX 01 01:21:42
  TRACK 66 AUDIO
    TITLE "LR_black_phrase_E_C06_066"
    INDEX 01 01:22:12
  TRACK 67 AUDIO
    TITLE "LR_black_phrase_E_C06_067"
    INDEX 01 01:23:66
  TRACK 68 AUDIO
    TITLE "LR_black_phrase_E_C06_068"
    INDEX 01 01:24:62
  TRACK 69 AUDIO
    TITLE "LR_black_phrase_E_C06_069"
    INDEX 01 01:25:65
  TRACK 70 AUDIO
    TITLE "LR_black_phrase_E_C06_070"
    INDEX 01 01:26:20
  TRACK 71 AUDIO
    TITLE "LR_black_phrase_E_C06_071"
    INDEX 01 01:27:62
  TRACK 72 AUDIO
    TITLE "LR_black_phrase_E_C06_072"
    INDEX 01 01:28:40
  TRACK 73 AUDIO
    TITLE "LR_black_phrase_E_C06_073"
    INDEX 01 01:30:08
  TRACK 74 AUDIO
    TITLE "LR_black_phrase_E_C06_074"
    INDEX 01 01:31:09
  TRACK 75 AUDIO
    TITLE "LR_black_phrase_E_C06_075"
    INDEX 01 01:32:28
  TRACK 76 AUDIO
    TITLE "LR_black_phrase_E_C06_076"
    INDEX 01 01:32:58
  TRACK 77 AUDIO
    TITLE "LR_black_phrase_E_C06_077"
    INDEX 01 01:35:11
  TRACK 78 AUDIO
    TITLE "LR_black_phrase_E_C06_078"
    INDEX 01 01:35:64
  TRACK 79 AUDIO
    TITLE "LR_black_phrase_E_C06_079"
    INDEX 01 01:38:17
  TRACK 80 AUDIO
    TITLE "LR_black_phrase_E_C06_080"
    INDEX 01 01:39:22
  TRACK 81 AUDIO
    TITLE "LR_black_phrase_E_C06_081"
    INDEX 01 01:40:39
  TRACK 82 AUDIO
    TITLE "LR_black_phrase_E_C06_082"
    INDEX 01 01:40:67
  TRACK 83 AUDIO
    TITLE "LR_black_phrase_E_C06_083"
    INDEX 01 01:43:03
  TRACK 84 AUDIO
    TITLE "LR_black_phrase_E_C06_084"
    INDEX 01 01:43:57
  TRACK 85 AUDIO
    TITLE "LR_black_phrase_E_C06_085"
    INDEX 01 01:45:68
  TRACK 86 AUDIO
    TITLE "LR_black_phrase_E_C06_086"
    INDEX 01 01:46:69
  TRACK 87 AUDIO
    TITLE "LR_black_phrase_E_C06_087"
    INDEX 01 01:47:71
  TRACK 88 AUDIO
    TITLE "LR_black_phrase_E_C06_088"
    INDEX 01 01:48:13
  TRACK 89 AUDIO
    TITLE "LR_black_phrase_E_C06_089"
    INDEX 01 01:50:18
  TRACK 90 AUDIO
    TITLE "LR_black_phrase_E_C06_090"
    INDEX 01 01:50:61
  TRACK 91 AUDIO
    TITLE "LR_black_phrase_E_C06_091"
    INDEX 01 01:52:66
  TRACK 92 AUDIO
    TITLE "LR_black_phrase_E_C06_092"
    INDEX 01 01:53:60
  TRACK 93 AUDIO
    TITLE "LR_black_phrase_E_C06_093"
    INDEX 01 01:54:69
  TRACK 94 AUDIO
    TITLE "LR_black_phrase_E_C06_094"
    INDEX 01 01:55:16
  TRACK 95 AUDIO
    TITLE "LR_black_phrase_E_C06_095"
    INDEX 01 01:56:64
  TRACK 96 AUDIO
    TITLE "LR_black_phrase_E_C06_096"
    INDEX 01 01:57:36
  TRACK 97 AUDIO
    TITLE "LR_black_phrase_E_C06_097"
    INDEX 01 01:59:09
  TRACK 98 AUDIO
    TITLE "LR_black_phrase_E_C06_098"
    INDEX 01 02:00:09
  TRACK 99 AUDIO
    TITLE "LR_black_phrase_E_C06_099"
    INDEX 01 02:01:32
  TRACK 100 AUDIO
    TITLE "LR_black_phrase_E_C06_100"
    INDEX 01 02:01:63
  TRACK 101 AUDIO
    TITLE "LR_black_phrase_E_C06_101"
    INDEX 01 02:04:09
  TRACK 102 AUDIO
    TITLE "LR_black_phrase_E_C06_102"
    INDEX 01 02:04:61
  TRACK 103 AUDIO
    TITLE "LR_black_phrase_E_C06_103"
    INDEX 01 02:07:07
  TRACK 104 AUDIO
    TITLE "LR_black_phrase_E_C06_104"
    INDEX 01 02:08:12
  TRACK 105 AUDIO
    TITLE "LR_black_phrase_E_C06_105"
    INDEX 01 02:09:37
  TRACK 106 AUDIO
    TITLE "LR_black_phrase_E_C06_106"
    INDEX 01 02:09:67
  TRACK 107 AUDIO
    TITLE "LR_black_phrase_E_C06_107"
    INDEX 01 02:11:42
  TRACK 108 AUDIO
    TITLE "LR_black_phrase_E_C06_108"
    INDEX 01 02:12:22
  TRACK 109 AUDIO
    TITLE "LR_black_phrase_E_C06_109"
    INDEX 01 02:13:72
  TRACK 110 AUDIO
    TITLE "LR_black_phrase_E_C06_110"
    INDEX 01 02:14:74
  TRACK 111 AUDIO
    TITLE "LR_black_phrase_E_C06_111"
    INDEX 01 02:16:18
  TRACK 112 AUDIO
    TITLE "LR_black_phrase_E_C06_112"
    INDEX 01 02:16:37
  TRACK 113 AUDIO
    TITLE "LR_black_phrase_E_C06_113"
    INDEX 01 02:18:42
  TRACK 114 AUDIO
    TITLE "LR_black_phrase_E_C06_114"
    INDEX 01 02:19:12
  TRACK 115 AUDIO
    TITLE "LR_black_phrase_E_C06_115"
    INDEX 01 02:21:17
  TRACK 116 AUDIO
    TITLE "LR_black_phrase_E_C06_116"
    INDEX 01 02:22:12
  TRACK 117 AUDIO
    TITLE "LR_black_phrase_E_C06_117"
    INDEX 01 02:23:29
  TRACK 118 AUDIO
    TITLE "LR_black_phrase_E_C06_118"
    INDEX 01 02:23:49
  TRACK 119 AUDIO
    TITLE "LR_black_phrase_E_C06_119"
    INDEX 01 02:25:42
  TRACK 120 AUDIO
    TITLE "LR_black_phrase_E_C06_120"
    INDEX 01 02:26:12
  TRACK 121 AUDIO
    TITLE "LR_black_phrase_E_C06_121"
    INDEX 01 02:28:05
